<?xml version="1.0" encoding="UTF-8"?>
<svg version="1.1" xmlns="http://www.w3.org/2000/svg" width="256" height="256">
<path d="M0 0 C84.48 0 168.96 0 256 0 C256 84.48 256 168.96 256 256 C171.52 256 87.04 256 0 256 C0 171.52 0 87.04 0 0 Z " fill="#3E513C" transform="translate(0,0)"/>
<path d="M0 0 C6.51793318 2.34451029 10.33328885 4.99860895 13.4921875 11.31640625 C13.58209842 12.85868481 13.60975711 14.4048152 13.60571289 15.94970703 C13.60559959 17.39097458 13.60559959 17.39097458 13.60548401 18.86135864 C13.60032272 19.90097748 13.59516144 20.94059631 13.58984375 22.01171875 C13.5884288 23.07429901 13.58701385 24.13687927 13.58555603 25.23165894 C13.57994584 28.63493634 13.56739159 32.03814863 13.5546875 35.44140625 C13.54967381 37.74479072 13.54511068 40.04817622 13.54101562 42.3515625 C13.5299731 48.00653274 13.51322502 53.66146484 13.4921875 59.31640625 C15.73181669 58.83745394 17.97138909 58.35823612 20.2109375 57.87890625 C21.45810547 57.61207031 22.70527344 57.34523437 23.99023438 57.0703125 C25.99070609 56.63964765 27.98888616 56.19701129 29.97851562 55.71875 C32.64358623 55.18625287 34.7885508 55.0009829 37.3046875 56.12890625 C40.45835981 58.34815714 41.4429124 60.06555119 42.1796875 63.81640625 C41.3287353 68.14852655 39.9163918 69.60889588 36.4921875 72.31640625 C33.76716842 73.22474594 31.86984779 73.5000061 29.04296875 73.6328125 C28.19541016 73.67470703 27.34785156 73.71660156 26.47460938 73.75976562 C25.59353516 73.79908203 24.71246094 73.83839844 23.8046875 73.87890625 C22.91201172 73.92208984 22.01933594 73.96527344 21.09960938 74.00976562 C18.89728642 74.11575978 16.69485277 74.21782676 14.4921875 74.31640625 C14.48338814 75.307864 14.48338814 75.307864 14.47441101 76.3193512 C14.41035395 83.21423743 14.32590205 90.10866224 14.22973633 97.00317383 C14.19653308 99.57440091 14.16848692 102.14570007 14.14575195 104.71704102 C14.11212236 108.41844323 14.0597998 112.11918765 14.00390625 115.8203125 C13.99751633 116.96536758 13.9911264 118.11042267 13.98454285 119.29017639 C13.84981199 126.64532976 13.10395942 131.67858108 8.7421875 137.75390625 C5.61592535 139.92492163 3.20498776 139.60200627 -0.5078125 139.31640625 C-2.41481774 136.09061978 -2.75260488 133.72280665 -2.73486328 129.99707031 C-2.73471222 128.93627258 -2.73456116 127.87547485 -2.73440552 126.78253174 C-2.72408295 125.64386658 -2.71376038 124.50520142 -2.703125 123.33203125 C-2.7002951 122.16130066 -2.69746521 120.99057007 -2.69454956 119.78436279 C-2.68335406 116.04494 -2.65825026 112.30575666 -2.6328125 108.56640625 C-2.6227819 106.03125346 -2.61365619 103.49609691 -2.60546875 100.9609375 C-2.58341676 94.74601204 -2.54994525 88.53122625 -2.5078125 82.31640625 C-3.08766907 82.54140305 -3.66752563 82.76639984 -4.26495361 82.99821472 C-25.68965344 91.29155684 -25.68965344 91.29155684 -34.2578125 93.62890625 C-35.5403894 93.985896 -35.5403894 93.985896 -36.84887695 94.35009766 C-67.33268298 102.60241661 -67.33268298 102.60241661 -78.5078125 96.31640625 C-80.69481871 93.03589693 -80.75474261 92.09765365 -80.74731445 88.29760742 C-80.75104568 87.27612106 -80.75477692 86.2546347 -80.75862122 85.20219421 C-80.75448715 84.09906387 -80.75035309 82.99593353 -80.74609375 81.859375 C-80.76151421 79.5266869 -80.7778179 77.19400449 -80.79492188 74.86132812 C-80.81137666 71.18110599 -80.82030749 67.50130082 -80.81323242 63.82104492 C-80.8106127 60.27084083 -80.83873607 56.72190923 -80.87109375 53.171875 C-80.86088699 52.07481735 -80.85068024 50.9777597 -80.84016418 49.84745789 C-80.92711396 43.05020286 -81.70079179 40.1196586 -86.5078125 35.31640625 C-87.30095451 29.46698396 -87.30095451 29.46698396 -85.3203125 26.59375 C-82.74201261 24.77671538 -81.09435336 25.18473722 -78.0078125 25.56640625 C-77.04875 25.6746875 -76.0896875 25.78296875 -75.1015625 25.89453125 C-72.5078125 26.31640625 -72.5078125 26.31640625 -69.5078125 27.31640625 C-68.03607474 27.40860732 -66.56055898 27.44707985 -65.0859375 27.44921875 C-64.22484375 27.45050781 -63.36375 27.45179687 -62.4765625 27.453125 C-61.579375 27.44925781 -60.6821875 27.44539063 -59.7578125 27.44140625 C-58.43523437 27.44720703 -58.43523437 27.44720703 -57.0859375 27.453125 C-52.12010781 27.44573537 -47.42407682 27.08642355 -42.5078125 26.31640625 C-40.46872748 26.18419625 -38.42592845 26.09841329 -36.3828125 26.06640625 C-35.39023438 26.040625 -34.39765625 26.01484375 -33.375 25.98828125 C-30.01090271 26.37327331 -28.1701715 27.24196495 -25.5078125 29.31640625 C-24.8203125 32.69140625 -24.8203125 32.69140625 -25.5078125 36.31640625 C-29.24720232 40.2419438 -31.63875463 41.87047442 -37.24633789 42.03552246 C-37.92817139 42.03153442 -38.61000488 42.02754639 -39.3125 42.0234375 C-39.95517822 42.0380603 -40.59785645 42.05268311 -41.26000977 42.06774902 C-43.63390061 42.11469987 -46.00847648 42.11938872 -48.3828125 42.12890625 C-53.7040625 42.19078125 -59.0253125 42.25265625 -64.5078125 42.31640625 C-64.8378125 56.17640625 -65.1678125 70.03640625 -65.5078125 84.31640625 C-35.14704537 80.41154946 -35.14704537 80.41154946 -6.4765625 70.234375 C-4.5078125 69.31640625 -4.5078125 69.31640625 -2.5078125 69.31640625 C-2.54949977 62.16266342 -2.62184437 55.00969744 -2.71533203 47.85644531 C-2.74352701 45.4238995 -2.76474882 42.99126233 -2.77880859 40.55859375 C-2.80025758 37.05811843 -2.84692093 33.55873994 -2.8984375 30.05859375 C-2.89966614 28.97399872 -2.90089478 27.88940369 -2.90216064 26.77194214 C-3.02050622 20.64656146 -3.39706958 16.96704802 -7.5078125 12.31640625 C-8.4359375 11.51203125 -9.3640625 10.70765625 -10.3203125 9.87890625 C-12.5078125 7.31640625 -12.5078125 7.31640625 -12.4453125 3.56640625 C-11.98125 1.95765625 -11.98125 1.95765625 -11.5078125 0.31640625 C-7.69096323 -1.59201838 -3.98772648 -1.08699709 0 0 Z " fill="#FBFBFB" transform="translate(155.5078125,57.68359375)"/>
</svg>
